<?xml version="1.0" standalone="no"?>
<!DOCTYPE svg PUBLIC "-//W3C//DTD SVG 20010904//EN"
 "http://www.w3.org/TR/2001/REC-SVG-20010904/DTD/svg10.dtd">
<svg version="1.0" xmlns="http://www.w3.org/2000/svg"
 width="150.000000pt" height="31.000000pt" viewBox="0 0 150.000000 31.000000"
 preserveAspectRatio="xMidYMid meet">

<g transform="translate(0.000000,31.000000) scale(0.100000,-0.100000)"
fill="#000000" stroke="none">
<path d="M836 275 c-3 -8 -2 -15 3 -15 5 0 14 7 21 15 10 12 10 15 -3 15 -8 0
-17 -7 -21 -15z"/>
<path d="M470 230 c-16 -16 -20 -33 -20 -90 0 -57 4 -74 20 -90 24 -24 43 -25
64 -4 21 20 21 64 1 64 -9 0 -15 -10 -15 -26 0 -19 -4 -25 -17 -22 -15 3 -18
15 -18 77 0 53 4 76 13 79 7 2 16 -5 19 -17 7 -26 33 -28 33 -3 0 21 -29 52
-48 52 -7 0 -21 -9 -32 -20z"/>
<path d="M1390 230 c-11 -11 -20 -25 -20 -31 0 -17 21 -52 48 -81 14 -16 22
-33 19 -42 -9 -22 -28 -20 -34 4 -6 24 -21 26 -30 5 -7 -19 24 -55 48 -55 24
0 49 27 49 54 0 12 -16 41 -36 64 -21 25 -34 49 -30 57 7 19 25 19 32 0 8 -19
34 -20 34 -1 0 14 -36 46 -52 46 -5 0 -17 -9 -28 -20z"/>
<path d="M597 233 c-4 -8 -28 -166 -28 -188 -1 -19 19 -15 24 5 7 27 44 26 52
-1 4 -11 11 -19 17 -17 13 5 13 0 -2 111 -13 90 -15 97 -36 97 -13 0 -25 -3
-27 -7z m36 -90 c4 -38 3 -43 -15 -43 -14 0 -18 5 -14 16 3 9 6 32 6 52 0 47
16 30 23 -25z"/>
<path d="M700 134 c0 -80 3 -105 13 -102 6 3 13 23 15 46 3 34 7 42 23 42 10
0 19 7 19 15 0 8 -9 15 -20 15 -16 0 -20 7 -20 35 0 31 3 35 25 35 14 0 25 5
25 10 0 6 -18 10 -40 10 l-40 0 0 -106z"/>
<path d="M800 134 l0 -105 42 3 c49 4 66 28 19 28 -29 0 -31 3 -31 35 0 31 3
35 26 35 16 0 24 5 21 13 -2 6 -14 11 -25 9 -19 -3 -22 2 -22 32 0 33 2 36 30
36 17 0 30 5 30 10 0 6 -20 10 -45 10 l-45 0 0 -106z"/>
<path d="M960 134 c0 -80 3 -105 13 -102 6 3 13 21 15 41 4 48 16 47 31 -3 7
-23 18 -40 26 -40 19 0 19 -1 -6 66 l-22 57 22 43 c18 38 18 44 5 44 -9 0 -22
-17 -31 -40 -9 -22 -19 -40 -24 -40 -4 0 -5 18 -2 40 5 33 3 40 -11 40 -14 0
-16 -15 -16 -106z"/>
<path d="M1080 135 c0 -87 3 -105 15 -105 11 0 15 12 15 46 0 38 3 45 18 42
12 -2 18 -15 20 -46 2 -28 8 -42 18 -42 17 0 19 61 3 92 -8 14 -8 23 0 31 15
15 14 60 -1 75 -7 7 -29 12 -50 12 l-38 0 0 -105z m65 49 c0 -19 -6 -30 -17
-32 -14 -3 -18 3 -18 26 0 16 3 32 7 36 14 13 28 -1 28 -30z"/>
<path d="M1245 228 c-14 -45 -45 -167 -45 -181 0 -23 17 -21 25 3 9 27 45 27
45 -1 0 -18 5 -20 42 -17 49 4 66 28 19 28 -29 0 -31 3 -31 35 0 28 4 35 20
35 11 0 20 5 20 10 0 6 -9 10 -20 10 -16 0 -20 7 -20 35 0 30 3 35 24 35 14 0
28 5 31 10 4 6 -15 10 -50 10 -36 0 -57 -4 -60 -12z m25 -83 c0 -34 -4 -45
-15 -45 -13 0 -15 7 -9 38 12 67 24 71 24 7z"/>
<path d="M144 220 c-32 -13 -37 -28 -14 -40 11 -6 20 -18 20 -28 1 -22 19 -46
48 -61 31 -17 66 6 83 54 7 19 17 35 21 35 11 0 10 -6 -6 -43 -26 -63 -80 -88
-120 -56 -28 22 -66 18 -88 -8 -30 -37 73 -72 174 -60 48 6 106 33 95 44 -3 2
-18 -4 -33 -14 -22 -14 -47 -18 -109 -17 -89 0 -137 17 -114 39 21 20 40 20
82 0 35 -18 41 -18 65 -4 15 8 38 36 52 62 15 28 32 47 43 47 26 0 21 -18 -14
-51 -32 -30 -32 -36 2 -19 21 12 51 64 42 74 -4 3 -19 6 -34 6 -20 0 -27 4
-23 14 11 29 -118 48 -172 26z m156 -17 c15 -14 -92 -23 -162 -14 -22 3 -4 20
25 24 34 5 129 -2 137 -10z"/>
</g>
</svg>
